<?xml version="1.0" encoding="UTF-8"?> <!-- Generator: Adobe Illustrator 24.0.1, SVG Export Plug-In . SVG Version: 6.00 Build 0) --> <svg xmlns="http://www.w3.org/2000/svg" xmlns:xlink="http://www.w3.org/1999/xlink" version="1.1" id="Layer_1" x="0px" y="0px" viewBox="0 0 167.3 51.2" style="enable-background:new 0 0 167.3 51.2;" xml:space="preserve"> <title>info logo</title> <path d="M22.2,1.6L22.2,1.6c0-0.3-0.2-0.5-0.5-0.5H0.4C0.2,1.1,0,1.3,0,1.6c0,0,0,0,0,0c0,0.3,0.2,0.5,0.4,0.5c0,0,0,0,0,0h4.2 c0.5,0,0.9,0.4,0.9,0.9c0,0,0,0.1,0,0.1v45.1c0,0.5-0.4,0.9-0.9,1H0.4c-0.3,0-0.5,0.2-0.5,0.5s0.2,0.5,0.5,0.5h21.3 c0.3,0,0.5-0.2,0.5-0.5c0-0.3-0.2-0.5-0.4-0.5c0,0,0,0,0,0h-4.2c-0.5,0-0.9-0.5-0.9-1V3.1c0-0.5,0.4-1,0.9-1h4.2 C22,2.1,22.2,1.8,22.2,1.6"></path> <polygon points="77.3,50.1 89.6,50.1 89.6,31.1 105.5,31.1 105.5,20.6 89.6,20.6 89.6,11.7 112.2,11.7 112.2,1.1 77.3,1.1 "></polygon> <path d="M140.7,40.2c-7.7,0.2-14.1-6-14.3-13.7c0-0.3,0-0.5,0-0.8c0-8.4,6.2-14.6,14.3-14.6S155,17.3,155,25.7 c0.3,7.7-5.8,14.2-13.5,14.5C141.2,40.2,141,40.2,140.7,40.2 M140.7,0c-14.9,0-26.6,11.3-26.6,25.7s11.7,25.5,26.6,25.5 s26.6-11.3,26.6-25.5S155.6,0,140.7,0"></path> <path d="M70.3,1.1H60.1c-0.3,0-0.5,0.2-0.5,0.5c0,0,0,0,0,0c0,0.3,0.2,0.5,0.4,0.5c0,0,0,0,0,0h2.4c1.2,0,1.8,1.5,1.8,2.1v29 L32.9,1.1h-7.7c-0.3,0-0.5,0.2-0.5,0.5c0,0,0,0,0,0c0,0.3,0.2,0.5,0.4,0.5c0,0,0,0,0,0h3.3c0.5,0.1,0.9,0.5,0.9,1 c0,8.8,0,44.4,0,45.1c0,0.5-0.4,0.9-0.9,1h-3.3c-0.3,0-0.5,0.2-0.5,0.5s0.2,0.5,0.5,0.5h10.2c0.3,0,0.5-0.2,0.5-0.5 s-0.2-0.5-0.5-0.5h-3.3c-0.5,0-0.9-0.5-0.9-1V15.9L63,48.5c0,0,1.4,1.6,2.2,1.6c0.5,0,0.9-0.4,0.9-0.9c0,0,0,0,0-0.1V4.2 c0-0.6,0.3-2.1,1.5-2.1h2.7c0.3,0,0.5-0.2,0.5-0.5c0,0,0,0,0,0C70.8,1.3,70.6,1.1,70.3,1.1"></path> </svg> 