<?xml version="1.0" standalone="no"?>
<!DOCTYPE svg PUBLIC "-//W3C//DTD SVG 20010904//EN"
 "http://www.w3.org/TR/2001/REC-SVG-20010904/DTD/svg10.dtd">
<svg version="1.0" xmlns="http://www.w3.org/2000/svg"
 width="512.000000pt" height="512.000000pt" viewBox="0 0 512.000000 512.000000"
 preserveAspectRatio="xMidYMid meet">

<g transform="translate(0.000000,512.000000) scale(0.100000,-0.100000)"
fill="#000000" stroke="none">
<path d="M0 2560 l0 -2560 2560 0 2560 0 0 2560 0 2560 -2560 0 -2560 0 0
-2560z m1888 1303 c256 -763 583 -1733 619 -1840 25 -73 50 -133 57 -133 7 0
161 444 367 1058 l355 1057 342 3 342 2 0 -1490 0 -1490 -255 0 -255 0 0 1046
c0 929 -2 1045 -15 1042 -10 -2 -55 -119 -136 -358 -111 -328 -534 -1582 -546
-1623 -5 -16 -21 -17 -202 -15 l-196 3 -335 997 c-205 610 -340 998 -347 998
-10 0 -13 -219 -15 -1042 l-3 -1043 -255 0 -255 0 -3 1488 -2 1487 344 0 344
0 50 -147z"/>
</g>
</svg>
