<svg xmlns="http://www.w3.org/2000/svg" width="836" height="251" viewBox="0 0 836 251"><g fill="#FFF" transform="translate(.7 .2)"><path d="M111.5,2.6 L111.5,2.6 C111.5,1.2 110.5,0.1 109.2,0.1 L83.6,0.1 L55.8,0.1 L28,0.1 L2.3,0.1 C1,0.1 -5.68434189e-14,1.2 -5.68434189e-14,2.6 L-5.68434189e-14,2.6 C-5.68434189e-14,4 1,5.1 2.3,5.1 C7.9,5.1 21.9,5.1 23.3,5.1 C25.1,5.1 27.8,6.4 27.8,10.1 C27.8,13.9 27.8,236.7 27.8,240.5 C27.8,244 24.9,245.5 23.3,245.5 L2.3,245.5 C1,245.5 -5.68434189e-14,246.6 -5.68434189e-14,248 C-5.68434189e-14,249.4 1,250.5 2.3,250.5 L27.9,250.5 L55.7,250.5 L83.5,250.5 L109.1,250.5 C110.4,250.5 111.4,249.4 111.4,248 C111.4,246.6 110.4,245.5 109.1,245.5 C103.9,245.5 91.4,245.5 88.1,245.5 C85.3,245.5 83.6,242.9 83.6,240.5 C83.6,238.3 83.6,55.4 83.6,10.1 C83.6,7.2 85.7,5.1 88.1,5.1 L109.1,5.1 C110.4,5.1 111.5,4 111.5,2.6 Z"/><polygon points="388.3 250.6 450 250.6 450 153.4 530 153.4 530 99.5 450 99.5 450 54.3 563.3 54.3 563.3 .1 388.3 .1"/><path d="M706.7 1.42108547e-14C635.1 1.42108547e-14 578.9 55.5 578.9 125.6 578.9 195.4 635.1 250.5 706.7 250.5 778.3 250.5 834.5 195.4 834.5 125.6 834.5 55.5 778.3 1.42108547e-14 706.7 1.42108547e-14ZM706.7 196.5C667.7 196.5 638 166.4 638 125.6 638 84.4 667.7 54 706.7 54 745.7 54 775.400251 84.4 775.400251 125.6 775.5 166.5 745.7 196.5 706.7 196.5ZM353.2.1 332.2.1 323.1.1 302.1.1C300.8.1 299.8 1.2 299.8 2.6 299.8 4 300.8 5.1 302.1 5.1 306.4 5.1 315.2 5.1 318.4 5.1 320.5 5.1 323.1 6.8 323.1 9.8 323.1 11.7 323.1 164.4 323.1 164.4L165.5.1 160.7.1 147.6.1 126.6.1C125.3.1 124.3 1.2 124.3 2.6L124.3 2.6C124.3 4 125.3 5.1 126.6 5.1 126.6 5.1 139.9 5.1 143.1 5.1 145.9 5.1 147.6 7.6 147.6 10.1 147.5 55.2 147.6 237.3 147.6 240.5 147.6 243.9 144.9 245.5 143.1 245.5L126.6 245.5C125.3 245.5 124.3 246.6 124.3 248 124.3 249.4 125.3 250.5 126.6 250.5L147.6 250.5 156.7 250.5 177.7 250.5C179 250.5 180 249.4 180 248 180 246.6 179 245.5 177.7 245.5 173.3 245.5 163.7 245.5 161.2 245.5 158.2 245.5 156.7 242.5 156.7 240.5 156.7 238.2 156.7 75.5 156.7 75.5L316.5 242.5C316.5 242.5 323.6 250.5 327.6 250.5 330.7 250.5 332.1 247.8 332.1 245.5 332.1 211 332.1 11.1 332.1 9.8 332.1 6.9 334.5 5.1 336.8 5.1 340 5.1 348.8 5.1 353.1 5.1 354.4 5.1 355.4 4 355.4 2.6 355.4 1.2 354.5.1 353.2.1Z"/></g></svg>