<?xml version="1.0" standalone="no"?>
<!DOCTYPE svg PUBLIC "-//W3C//DTD SVG 20010904//EN"
 "http://www.w3.org/TR/2001/REC-SVG-20010904/DTD/svg10.dtd">
<svg version="1.0" xmlns="http://www.w3.org/2000/svg"
 width="2000.000000pt" height="2000.000000pt" viewBox="0 0 2000.000000 2000.000000"
 preserveAspectRatio="xMidYMid meet">

<g transform="translate(0.000000,2000.000000) scale(0.100000,-0.100000)"
fill="#000000" stroke="none">
<path d="M9695 18024 c-460 -42 -857 -152 -1194 -330 -574 -304 -921 -806
-996 -1439 -40 -340 5 -695 128 -1011 53 -137 309 -604 669 -1222 88 -152 165
-284 170 -292 7 -11 -2 -33 -35 -82 -80 -118 -147 -327 -147 -454 0 -160 84
-332 256 -521 l72 -79 -59 -104 c-144 -254 -313 -622 -423 -919 -96 -259 -123
-372 -197 -841 -49 -315 -116 -517 -270 -820 -173 -343 -353 -537 -653 -709
-446 -254 -1060 -322 -1521 -169 -375 125 -648 419 -706 763 -14 82 -6 234 16
320 39 147 149 323 258 413 269 221 710 228 923 15 86 -85 128 -194 126 -326
-1 -101 -18 -150 -69 -201 -45 -46 -101 -66 -190 -67 -94 -1 -157 12 -239 52
-109 52 -139 111 -109 214 9 32 14 60 11 62 -10 10 -66 -19 -86 -44 -47 -61
-30 -194 40 -301 88 -138 244 -212 445 -212 168 0 289 45 390 144 100 99 154
231 161 396 8 213 -72 408 -235 570 -95 95 -166 141 -298 194 -183 73 -371
108 -568 108 -330 -2 -616 -125 -835 -359 -327 -351 -428 -880 -259 -1359 168
-477 600 -875 1230 -1134 198 -82 340 -121 544 -152 129 -19 414 -16 550 6
434 70 854 263 1241 572 172 137 211 179 264 283 123 247 211 579 239 906 12
148 18 270 31 635 13 374 18 458 40 685 20 191 46 365 57 375 3 3 3 -13 -1
-35 -21 -130 -33 -405 -41 -905 -6 -414 -11 -523 -31 -720 -27 -271 -80 -514
-151 -694 -43 -109 -214 -453 -291 -586 -237 -408 -566 -705 -936 -844 -272
-103 -699 -125 -1137 -61 -601 89 -1310 399 -1789 782 -221 177 -374 379 -535
708 -276 567 -456 1365 -464 2060 -1 105 -4 208 -6 230 -2 22 -6 78 -10 125
-27 352 -147 580 -357 683 -106 51 -216 75 -403 87 -626 40 -843 101 -935 264
-63 110 -50 194 47 296 64 69 73 84 51 92 -52 19 -180 -89 -231 -194 -62 -129
-71 -244 -27 -360 69 -185 238 -255 745 -308 392 -41 497 -71 582 -163 128
-139 166 -345 228 -1222 12 -173 46 -614 50 -650 2 -22 7 -71 10 -110 23 -279
50 -443 101 -612 112 -372 303 -727 575 -1068 642 -805 1598 -1367 2555 -1499
132 -18 446 -38 506 -31 24 2 88 7 143 10 466 23 949 182 1340 439 394 259
740 639 974 1071 39 71 71 126 71 122 0 -4 -18 -52 -39 -106 -207 -522 -517
-964 -878 -1252 -539 -430 -1355 -609 -2159 -474 -272 46 -512 117 -778 231
-187 80 -307 145 -521 280 -580 365 -699 438 -870 536 -476 273 -854 433
-1190 504 -115 25 -152 28 -320 28 -163 1 -202 -2 -276 -21 -539 -137 -972
-691 -1101 -1408 -18 -97 -22 -160 -22 -330 0 -191 2 -222 27 -337 46 -217
121 -392 252 -587 380 -570 1001 -954 1750 -1083 112 -19 167 -22 390 -22 332
-1 342 1 1170 143 326 56 365 60 600 57 196 -3 216 -4 300 -30 335 -102 561
-308 620 -566 19 -86 13 -232 -15 -330 -67 -235 -208 -422 -377 -501 -84 -39
-140 -50 -253 -50 -229 1 -423 107 -507 279 -34 67 -38 85 -38 150 0 69 2 75
30 99 26 23 35 25 92 20 35 -4 90 -17 123 -30 56 -23 60 -23 60 -7 0 26 -75
87 -134 109 -116 43 -206 32 -271 -34 -59 -59 -80 -123 -80 -251 0 -96 2 -103
38 -176 88 -179 324 -324 599 -368 122 -20 314 -9 414 24 249 80 493 348 589
646 36 111 46 316 21 424 -44 185 -148 359 -316 526 -123 123 -238 207 -389
284 -245 125 -465 182 -751 193 -130 5 -191 1 -380 -21 -352 -41 -414 -46
-596 -53 l-170 -6 3 34 c8 70 -70 144 -190 181 -57 17 -86 20 -170 15 -154 -7
-247 -52 -247 -119 0 -26 -2 -28 -27 -22 -42 10 -272 90 -323 112 l-45 19 45
7 c53 8 76 23 89 59 20 51 -24 132 -133 246 -121 126 -258 203 -363 203 -58 0
-90 -23 -122 -86 l-25 -49 -23 29 c-31 37 -142 200 -149 218 -4 9 7 21 31 32
58 27 89 76 93 148 8 128 -61 311 -144 385 -55 48 -99 59 -142 37 -17 -9 -34
-16 -38 -16 -4 0 -4 62 -1 138 3 97 11 158 26 210 24 81 70 178 71 149 0 -11
15 -34 34 -53 29 -29 41 -34 82 -34 64 0 130 32 222 105 127 102 221 236 225
323 l1 40 77 7 c83 7 152 2 299 -22 115 -18 137 -28 89 -38 -85 -19 -149 -73
-149 -128 0 -23 11 -41 45 -74 107 -102 476 -232 598 -209 55 10 70 38 56 110
-5 31 -17 75 -25 98 -8 22 -14 43 -14 45 0 5 249 -124 267 -139 9 -7 3 -18
-22 -40 -94 -82 -54 -203 120 -366 99 -92 197 -144 284 -149 42 -3 75 1 90 9
33 17 61 67 69 122 l7 45 70 -55 c39 -30 137 -103 219 -162 127 -91 146 -108
131 -117 -10 -5 -32 -22 -49 -37 -27 -23 -31 -33 -31 -80 0 -70 31 -133 107
-214 136 -145 319 -220 416 -170 43 22 82 93 89 160 l6 55 56 -26 c31 -14 117
-51 191 -82 l136 -56 -33 -43 c-97 -128 -47 -214 158 -272 95 -27 245 -36 324
-20 100 21 151 93 114 162 -10 19 -9 21 17 15 16 -3 65 -11 109 -18 l81 -12
-10 -46 c-29 -145 57 -211 273 -211 166 0 280 35 336 101 27 33 31 76 11 119
-6 14 12 18 116 28 68 7 134 15 147 19 l24 6 -28 -47 c-74 -127 0 -206 194
-206 203 1 361 88 361 199 0 34 -56 105 -91 116 -34 11 -20 21 64 45 69 19
216 70 280 95 14 6 17 2 17 -24 0 -108 96 -138 276 -85 110 31 175 66 236 125
42 39 48 51 48 85 0 43 -19 68 -73 96 l-29 14 128 76 128 75 28 -33 c83 -94
236 -56 387 95 89 90 141 180 141 247 0 36 -5 47 -30 65 l-29 22 26 31 c14 17
52 60 85 95 l58 64 28 -26 c89 -85 194 -10 307 218 59 118 81 206 66 263 -7
23 -15 42 -19 42 -5 0 -16 6 -26 13 -17 13 -17 16 12 74 53 103 138 312 187
453 69 202 112 388 131 560 l7 65 23 -90 c40 -158 128 -406 223 -624 23 -52
40 -96 38 -97 -1 -2 -20 1 -40 6 -81 18 -150 -31 -163 -115 -24 -161 128 -428
283 -497 67 -30 133 -21 178 22 19 19 36 32 38 29 15 -19 157 -230 157 -234 0
-2 -16 -7 -35 -11 -126 -23 -132 -196 -14 -374 127 -190 341 -257 443 -139
l32 38 140 -141 c76 -77 134 -142 128 -145 -55 -20 -100 -53 -116 -83 -27 -49
-19 -133 19 -207 54 -109 210 -242 331 -285 92 -32 131 -15 185 80 l25 44 48
-59 c71 -84 147 -184 143 -186 -2 -2 -24 -9 -48 -17 -66 -22 -86 -56 -85 -139
3 -131 66 -280 161 -381 95 -100 172 -110 246 -30 22 23 40 40 42 38 17 -16
140 -366 132 -374 -1 -2 -31 6 -66 16 -181 57 -232 8 -261 -247 -18 -157 10
-318 63 -362 45 -37 176 -18 269 40 l47 28 -5 -32 c-28 -161 -93 -321 -179
-436 l-47 -64 -22 67 c-25 72 -63 121 -113 142 -147 63 -519 -104 -563 -253
-15 -48 2 -111 50 -187 l30 -46 -38 0 c-105 0 -254 40 -362 97 -108 56 -108
56 -72 97 46 52 50 94 18 160 -30 61 -112 142 -173 171 -52 25 -125 26 -152 1
-12 -11 -23 -17 -25 -15 -9 10 -56 111 -81 176 l-28 71 42 40 c39 37 41 41 41
100 0 125 -73 287 -146 322 l-31 15 -11 140 c-7 77 -14 183 -18 235 l-6 95 32
35 c18 19 45 60 59 90 49 104 29 277 -40 351 -25 27 -34 31 -64 26 -39 -6 -36
-13 -60 113 -23 116 -66 242 -114 339 -41 81 -41 81 -17 81 92 0 30 142 -106
245 -127 96 -254 135 -285 88 l-14 -21 -72 19 c-40 10 -109 20 -154 21 l-81 3
-11 36 c-18 60 -42 74 -126 74 -65 0 -80 -4 -156 -43 -87 -43 -159 -104 -185
-154 -8 -15 -14 -30 -14 -33 0 -3 0 -9 0 -13 0 -5 -41 -33 -91 -63 -355 -210
-612 -595 -695 -1044 -29 -154 -27 -472 4 -620 53 -250 159 -501 289 -685 38
-52 127 -154 198 -226 134 -134 253 -228 505 -399 277 -188 377 -281 437 -410
25 -54 28 -71 28 -165 0 -92 -3 -112 -26 -160 -64 -137 -171 -199 -272 -156
-67 28 -119 115 -147 248 -13 66 -24 78 -41 47 -29 -55 23 -276 86 -368 22
-32 50 -55 90 -76 52 -26 69 -30 144 -30 76 0 94 4 153 32 119 56 201 161 229
294 19 87 7 230 -28 331 -67 193 -207 349 -598 669 -357 292 -491 421 -632
609 -205 275 -276 625 -203 1001 101 521 439 903 872 984 471 88 724 -146 799
-740 7 -53 12 -282 14 -560 2 -471 4 -517 31 -740 77 -629 321 -1086 719
-1350 153 -101 292 -159 473 -197 91 -19 136 -23 297 -22 262 1 445 36 685
131 585 230 991 697 1110 1277 81 396 13 936 -187 1479 -158 432 -409 885
-723 1307 -133 179 -162 212 -381 436 -511 524 -870 1006 -1109 1489 -109 221
-147 317 -53 135 52 -100 195 -340 236 -394 13 -17 17 -15 67 34 58 56 137
100 183 100 42 0 88 -23 129 -66 121 -127 166 -452 87 -633 l-19 -43 108 -131
c306 -373 550 -633 669 -714 242 -165 609 -348 993 -495 553 -211 1278 -393
1695 -425 185 -15 634 -8 756 12 13 2 56 6 94 10 39 4 185 22 325 41 313 42
416 49 640 48 135 -1 199 -6 282 -23 276 -55 451 -157 523 -305 40 -81 46
-196 17 -293 -61 -199 -256 -394 -474 -475 -200 -74 -488 -37 -797 102 -52 23
-202 97 -335 165 -315 160 -451 205 -621 205 -188 0 -324 -57 -455 -189 -253
-256 -273 -526 -56 -746 104 -106 266 -205 266 -164 0 8 -20 39 -45 69 -122
148 -166 242 -167 355 -2 264 216 471 503 477 197 4 396 -61 699 -230 298
-167 557 -274 772 -321 355 -77 666 -32 911 132 351 235 537 646 468 1037 -30
171 -82 296 -190 456 -203 305 -518 484 -1022 583 -151 29 -508 73 -699 86
-52 3 -120 8 -150 10 -56 4 -162 11 -330 20 -52 3 -129 7 -170 10 -41 3 -122
7 -180 10 -58 3 -130 8 -160 10 -30 3 -120 9 -200 15 -804 57 -1588 327 -2277
786 -79 52 -143 97 -143 99 0 2 35 -11 79 -30 173 -73 402 -135 641 -172 143
-21 499 -24 640 -4 285 40 556 140 1075 399 393 196 596 253 906 253 380 1
617 -136 914 -525 256 -337 342 -433 479 -533 162 -119 348 -167 501 -128 71
18 101 38 137 91 65 96 105 374 53 374 -16 0 -20 -11 -35 -100 -31 -172 -104
-244 -250 -244 -136 0 -267 62 -398 187 -84 82 -137 155 -271 379 -61 103
-139 225 -173 270 -77 105 -213 239 -303 299 -247 164 -564 248 -936 249 -287
0 -461 -40 -868 -200 -409 -160 -518 -185 -776 -177 -247 8 -409 50 -660 172
-263 128 -487 290 -740 536 l-110 107 -110 37 c-339 115 -731 351 -985 594
l-55 53 65 -46 c428 -301 745 -470 1103 -590 73 -25 152 -47 177 -50 25 -4
142 -6 260 -6 318 -1 537 25 830 96 304 74 646 204 1145 434 618 285 921 392
1300 461 99 18 159 22 345 23 252 0 371 -16 558 -75 395 -126 659 -384 726
-712 43 -209 -5 -347 -147 -417 -128 -63 -311 -49 -486 36 -145 71 -199 132
-423 477 -144 223 -269 339 -415 388 -85 28 -196 30 -277 4 -258 -82 -365
-443 -187 -637 28 -31 51 -36 51 -11 0 9 -12 46 -27 82 -50 124 -32 229 56
324 128 139 357 122 531 -40 82 -75 115 -124 207 -298 98 -186 162 -281 244
-364 68 -68 194 -157 275 -192 365 -159 647 -133 843 77 178 190 229 503 130
809 -116 362 -518 685 -1089 875 -334 111 -656 161 -1050 161 -253 1 -408 -11
-620 -46 -266 -43 -409 -84 -860 -247 -500 -180 -794 -254 -1142 -288 -115
-12 -433 -14 -518 -5 -239 27 -456 82 -585 148 -57 28 -61 26 71 46 246 37
491 209 660 462 114 170 174 306 255 577 72 240 150 367 294 477 171 130 374
187 650 184 204 -3 372 -33 640 -114 77 -23 181 -52 230 -63 477 -108 847 -1
1330 384 144 115 366 339 433 437 70 102 145 262 173 367 29 110 31 301 6 404
-38 154 -115 300 -208 396 -67 70 -135 96 -224 85 -111 -13 -263 -83 -397
-182 -83 -62 -94 -76 -75 -92 9 -6 32 0 77 21 177 82 254 108 331 108 150 0
270 -122 330 -335 31 -111 31 -280 -1 -380 -46 -145 -115 -259 -235 -384 -143
-149 -317 -272 -565 -396 -295 -148 -458 -195 -670 -195 -192 -1 -303 30 -755
208 -321 126 -543 202 -665 228 -126 27 -319 25 -430 -5 -243 -64 -455 -223
-650 -486 -91 -123 -145 -208 -267 -424 -123 -218 -151 -258 -238 -340 -136
-127 -308 -182 -501 -160 -132 15 -251 63 -366 150 -128 95 -171 190 -264 579
-34 146 -75 306 -89 355 -62 213 -150 392 -261 531 l-32 40 81 60 c104 75 291
261 342 339 60 92 86 165 86 243 0 61 -4 76 -64 197 -80 161 -107 245 -114
357 -13 193 48 424 237 908 209 532 270 790 270 1138 0 334 -87 707 -232 997
-337 674 -1141 1161 -2093 1270 -61 7 -494 14 -550 9z m-1391 -805 c14 -11 26
-30 26 -42 0 -92 -221 -316 -277 -281 -10 6 -24 23 -32 39 -33 68 57 240 154
293 34 19 99 14 129 -9z m3514 -163 c92 -48 143 -199 89 -262 -52 -60 -176
-14 -226 83 -18 36 -13 124 9 161 17 28 25 32 60 32 23 0 53 -6 68 -14z m410
-390 c58 -66 63 -196 11 -252 -90 -96 -234 112 -156 227 45 66 100 76 145 25z
m-4213 -112 c85 -55 77 -326 -15 -522 -58 -123 -127 -192 -195 -192 -36 0 -80
46 -96 101 -34 112 -5 348 56 468 66 131 175 194 250 145z m4120 -283 c109
-54 153 -128 122 -204 -39 -93 -156 -94 -265 -2 -68 57 -108 200 -66 232 31
24 133 11 209 -26z m-3755 -221 c44 -31 81 -100 82 -152 1 -59 -9 -87 -41
-121 -36 -40 -73 -57 -122 -57 -111 0 -163 175 -88 297 40 65 107 77 169 33z
m3979 -253 c57 -93 65 -244 17 -341 -86 -175 -357 -266 -394 -133 -30 108 68
355 186 471 79 76 145 78 191 3z m-4246 -86 c38 -34 88 -132 108 -211 20 -81
17 -204 -6 -268 -35 -95 -135 -164 -217 -148 -53 10 -111 66 -143 138 -26 56
-29 75 -29 163 -1 114 10 157 56 235 69 114 162 151 231 91z m415 -437 c27
-19 57 -76 66 -125 17 -93 -75 -148 -170 -103 -42 20 -58 47 -56 97 3 75 58
147 112 147 14 0 36 -7 48 -16z m3653 -326 c17 -31 6 -136 -19 -185 -40 -78
-131 -111 -166 -61 -40 57 3 199 73 245 45 30 96 30 112 1z m-3898 -26 c117
-78 178 -330 101 -422 -36 -42 -73 -40 -125 7 -80 73 -130 180 -130 279 0 124
73 189 154 136z m338 -372 c38 -21 54 -69 54 -170 0 -73 -5 -103 -19 -130 -50
-95 -114 -113 -150 -42 -45 89 -19 244 54 322 31 33 33 34 61 20z m3406 -86
c56 -101 35 -213 -57 -305 -61 -62 -120 -90 -145 -69 -35 29 -10 192 45 306
59 121 115 145 157 68z m-3320 -976 c111 -41 201 -164 239 -324 33 -139 22
-355 -22 -448 -8 -17 -12 -22 -9 -12 17 58 27 183 22 273 -17 300 -139 489
-340 522 l-52 9 52 1 c32 1 75 -8 110 -21z m3158 -48 c-165 -19 -294 -155
-374 -397 -39 -114 -54 -220 -42 -293 11 -68 6 -77 -10 -19 -18 67 -13 212 10
302 26 100 91 225 153 293 83 90 154 124 258 122 l65 -1 -60 -7z m-3326 -168
c138 -93 272 -421 201 -492 -24 -24 -39 -25 -86 -5 -94 39 -197 150 -238 254
-20 52 -23 140 -5 184 14 37 57 87 74 87 7 0 31 -13 54 -28z m3509 -117 c41
-44 42 -90 6 -164 -53 -106 -224 -241 -304 -241 -120 0 -84 201 64 359 93 98
171 114 234 46z m2697 -1285 c33 -12 27 -22 -29 -49 -54 -25 -145 -37 -166
-21 -13 9 -11 14 15 35 47 39 129 55 180 35z m-295 -95 c59 -30 26 -92 -62
-116 -47 -12 -91 -1 -96 26 -9 42 55 105 106 105 13 0 36 -7 52 -15z m-210
-175 c11 -11 20 -25 20 -31 0 -41 -104 -137 -136 -125 -27 10 -11 92 28 149
23 32 59 36 88 7z m-160 -250 c14 -14 20 -33 20 -61 0 -35 -6 -48 -39 -80 -85
-85 -142 -20 -84 96 34 67 66 82 103 45z m-106 -282 c20 -28 20 -61 1 -99 -29
-54 -112 -88 -143 -57 -27 27 -5 116 39 157 31 29 83 28 103 -1z m-176 -295
c20 -18 25 -39 23 -96 -2 -64 -134 -152 -176 -117 -40 33 0 162 63 205 43 30
63 31 90 8z m-250 -238 c45 -27 56 -58 36 -101 -44 -92 -208 -154 -303 -115
-43 18 -74 80 -60 121 34 97 228 153 327 95z m-710 -96 c153 -33 282 -121 282
-192 0 -39 -35 -77 -92 -101 -55 -23 -83 -20 -141 17 -127 82 -334 272 -306
281 46 16 171 13 257 -5z m-8440 -84 c-4 -51 -27 -95 -50 -95 -21 0 3 100 33
137 19 22 22 15 17 -42z m12877 -196 c16 -8 31 -21 33 -30 9 -48 -261 -80
-305 -36 -15 14 -15 18 0 40 9 14 33 30 54 35 51 15 181 9 218 -9z m-12943
-41 c16 -48 -24 -150 -52 -133 -9 5 -11 23 -7 59 10 98 39 134 59 74z m12500
-8 c37 -18 42 -37 14 -63 -37 -34 -113 -58 -201 -64 -75 -5 -83 -4 -109 19
-51 43 -17 94 79 119 43 12 185 4 217 -11z m-492 -115 c68 -62 -51 -166 -195
-169 -170 -3 -150 122 30 181 54 17 139 11 165 -12z m-4411 -320 c275 -482
506 -850 708 -1126 l85 -117 35 10 c66 18 193 -14 283 -72 83 -53 164 -155
170 -215 7 -67 -1 -98 -34 -131 -19 -19 -43 -34 -54 -34 -21 0 -303 282 -382
383 -25 32 -78 97 -119 145 -195 231 -401 536 -578 857 -109 198 -284 560
-282 583 0 10 6 1 168 -283z m3882 204 c11 -5 24 -22 30 -36 33 -87 -121 -213
-261 -213 -81 0 -109 45 -76 123 38 93 226 170 307 126z m-11481 -74 c37 -44
29 -165 -11 -165 -33 0 -60 101 -40 153 12 30 32 35 51 12z m10958 -191 c85
-31 59 -95 -63 -155 -124 -61 -259 -78 -309 -38 -35 28 -36 85 -1 127 63 75
255 109 373 66z m-10864 -147 c46 -61 73 -169 44 -180 -25 -9 -50 16 -79 76
-52 112 -27 186 35 104z m8767 17 c156 -47 289 -153 289 -231 0 -96 -207 -100
-397 -8 -106 52 -143 104 -129 181 14 70 114 94 237 58z m1464 -15 c46 -13 85
-45 85 -70 0 -28 -48 -78 -101 -105 -58 -29 -157 -54 -217 -54 -113 0 -168 76
-107 148 58 70 231 111 340 81z m-653 -90 c44 -22 58 -45 58 -91 0 -43 -22
-73 -70 -98 -41 -21 -156 -42 -193 -34 -64 12 -80 18 -107 41 -25 20 -30 32
-30 67 0 52 19 80 73 108 79 40 198 43 269 7z m-9395 -248 c47 -34 105 -118
101 -146 -5 -32 -40 -29 -84 9 -68 58 -114 166 -69 166 6 0 30 -13 52 -29z
m3251 -73 c30 -63 -38 -185 -128 -231 -35 -18 -62 -25 -74 -21 -43 16 11 167
87 246 31 32 44 39 70 36 23 -2 35 -10 45 -30z m-2923 -235 c73 -36 107 -71
103 -108 -5 -54 -69 -44 -163 25 -55 40 -81 79 -71 105 8 22 61 13 131 -22z
m2427 -100 c74 -67 -98 -281 -219 -271 -36 3 -38 5 -41 41 -7 88 129 247 212
247 16 0 38 -7 48 -17z m1509 -60 c39 -23 63 -75 54 -121 -23 -123 -159 -252
-266 -252 -66 0 -84 23 -84 109 1 101 61 214 140 262 38 24 117 25 156 2z
m-3448 -87 c58 -33 109 -92 105 -119 -7 -47 -147 -25 -219 35 -30 25 -51 66
-44 88 14 45 79 43 158 -4z m1337 -141 c21 -13 11 -70 -17 -97 -90 -83 -283
-107 -283 -35 0 90 215 184 300 132z m-693 -20 c94 -28 138 -122 77 -162 -58
-38 -239 -6 -293 51 -73 78 74 153 216 111z m10018 -205 c19 -31 -60 -86 -137
-96 -45 -6 -98 8 -98 26 0 39 214 104 235 70z m-7650 -140 c62 -38 79 -97 49
-168 -47 -113 -188 -169 -264 -106 -43 37 -60 75 -60 137 0 141 148 215 275
137z m7303 18 c38 -38 -30 -117 -127 -145 -59 -17 -96 -11 -115 19 -35 56 193
175 242 126z m-11608 -65 c12 -15 20 -38 18 -52 -3 -22 -9 -26 -39 -29 -37 -3
-89 27 -89 53 0 18 48 55 71 55 9 0 27 -12 39 -27z m9461 -19 c86 -25 190 -84
245 -139 94 -93 81 -155 -35 -163 -73 -5 -141 15 -216 63 -87 55 -147 122
-165 184 -19 66 53 90 171 55z m1737 -96 c30 -25 9 -76 -50 -118 -93 -68 -220
-15 -162 68 39 55 167 85 212 50z m-10851 -74 c59 -38 83 -134 43 -174 -26
-26 -48 -25 -91 4 -89 61 -93 209 -5 192 17 -4 41 -13 53 -22z m9877 -41 c64
-20 126 -76 126 -113 0 -50 -52 -71 -172 -71 -94 1 -176 29 -213 73 -83 98 81
168 259 111z m534 11 c80 -33 116 -99 74 -137 -54 -49 -228 -39 -280 16 -39
42 -29 100 21 122 43 19 139 19 185 -1z m-12242 -82 c145 -74 65 -235 -123
-250 -83 -6 -137 16 -164 69 -47 92 -8 173 96 200 50 13 147 3 191 -19z m5213
-36 c41 -22 88 -80 102 -125 30 -102 -54 -221 -156 -221 -145 0 -186 251 -56
337 39 27 71 29 110 9z m-2885 -87 c33 -26 35 -73 3 -120 -29 -43 -65 -56
-107 -39 -35 15 -80 74 -80 106 0 21 32 57 60 67 36 13 98 6 124 -14z m-1797
-33 c95 -12 186 -65 218 -127 18 -33 20 -102 4 -131 -6 -11 -26 -26 -44 -34
-127 -53 -375 59 -425 192 -12 31 5 65 41 85 24 13 104 27 134 23 11 -1 44 -5
72 -8z m-1058 -102 c62 -55 73 -94 45 -157 -55 -122 -223 -209 -313 -162 -77
39 -64 189 26 295 42 50 81 70 139 70 47 0 56 -4 103 -46z m10522 8 c84 -54
156 -153 195 -269 26 -76 19 -146 -16 -175 -56 -45 -185 -1 -284 98 -126 126
-144 265 -46 348 43 35 93 35 151 -2z m-7243 -19 c64 -47 78 -128 31 -187 -45
-57 -167 -17 -209 69 -42 87 2 151 98 143 31 -3 64 -13 80 -25z m1965 -29 c41
-21 104 -81 124 -118 21 -40 19 -113 -5 -145 -28 -39 -90 -58 -139 -43 -61 18
-131 70 -158 116 -59 100 -8 206 98 206 26 0 62 -7 80 -16z m-1436 -104 c41
-25 63 -59 70 -108 6 -48 -8 -77 -49 -98 -65 -34 -168 -14 -218 42 -74 84 -12
184 115 184 32 0 62 -7 82 -20z m526 -30 c14 -11 35 -39 46 -63 48 -99 9 -177
-88 -177 -38 0 -56 6 -78 24 -24 21 -28 31 -27 75 1 87 48 159 105 161 9 0 28
-9 42 -20z m396 6 c37 -20 87 -78 114 -133 20 -40 20 -46 7 -70 -25 -44 -65
-66 -118 -67 -103 -2 -138 47 -133 187 1 28 9 47 30 68 33 32 58 36 100 15z
m-2741 -167 c60 -30 110 -81 140 -147 20 -45 24 -64 19 -110 -11 -102 -66
-140 -154 -107 -105 40 -193 166 -193 275 0 82 24 110 93 110 31 0 67 -8 95
-21z m9313 -156 c114 -62 173 -188 134 -288 -31 -82 -116 -100 -229 -47 -83
39 -139 91 -172 158 -24 50 -26 59 -15 94 12 41 77 105 115 114 44 9 118 -4
167 -31z m-4317 -134 c57 -45 22 -183 -69 -274 -143 -143 -335 -117 -335 45 0
53 18 86 73 137 105 97 267 142 331 92z m-7392 -36 c117 -69 96 -307 -36 -408
-105 -80 -202 -25 -229 129 -20 120 21 233 100 275 48 25 125 27 165 4z
m12342 -167 c137 -67 236 -228 183 -300 -57 -78 -323 15 -417 146 -49 67 -37
125 34 169 43 28 125 22 200 -15z m-9001 -85 c97 -47 151 -130 152 -231 0
-122 -53 -189 -141 -176 -168 23 -323 241 -260 365 16 29 48 55 81 64 36 10
125 -1 168 -22z m3250 -135 c43 -18 85 -68 93 -112 20 -106 -119 -267 -231
-267 -76 0 -129 73 -128 174 2 88 47 158 127 195 58 27 93 30 139 10z m6449
-82 c58 -20 134 -71 159 -105 28 -39 28 -87 1 -110 -73 -58 -321 -5 -383 82
-24 34 -24 66 1 106 31 52 121 63 222 27z m-8819 -138 c106 -51 149 -148 109
-239 -26 -58 -66 -80 -142 -79 -143 2 -280 104 -280 209 0 98 62 146 185 141
53 -2 85 -10 128 -32z m9482 -12 c87 -36 138 -98 133 -160 -6 -72 -96 -102
-236 -78 -119 20 -202 82 -188 139 10 38 65 94 111 111 47 17 124 12 180 -12z
m1414 -18 c64 -34 81 -102 36 -150 -64 -69 -242 -109 -315 -71 -46 24 -59 43
-60 85 0 66 53 119 150 151 37 12 154 3 189 -15z m604 -13 c16 -10 39 -30 49
-44 27 -35 12 -61 -50 -93 -87 -44 -196 -52 -241 -19 -50 38 -37 132 21 165
55 29 162 25 221 -9z m-9921 -9 c43 -21 86 -62 105 -99 21 -40 21 -122 0 -162
-41 -78 -178 -100 -286 -46 -168 84 -170 270 -3 324 39 12 146 3 184 -17z
m8616 -10 c63 -21 100 -51 111 -92 20 -67 -64 -120 -205 -129 -142 -10 -244
40 -244 117 0 37 48 93 92 107 52 17 189 15 246 -3z m1740 -24 c93 -42 172
-117 172 -163 0 -54 -145 -54 -257 0 -91 42 -119 108 -68 158 30 31 91 33 153
5z m-16097 -47 c67 -61 103 -150 100 -247 -2 -54 -12 -78 -49 -118 -69 -75
-180 -17 -233 122 -37 98 -20 202 43 255 44 37 88 34 139 -12z m4910 -19 c105
-31 162 -92 161 -170 -3 -141 -164 -219 -303 -146 -66 34 -105 88 -120 163
-10 49 -9 61 7 94 33 69 138 94 255 59z m11642 -221 c74 -78 88 -200 27 -233
-40 -21 -134 48 -164 122 -23 53 -20 76 13 109 39 39 87 40 124 2z m-16105
-312 c46 -24 113 -95 141 -150 56 -110 25 -211 -66 -211 -49 0 -126 44 -180
104 -85 92 -96 184 -31 254 27 28 84 29 136 3z m16221 -117 c21 -15 23 -23 19
-70 -6 -68 -57 -172 -113 -231 -48 -49 -63 -51 -83 -9 -31 63 38 256 107 303
40 27 40 27 70 7z m-15634 -289 c85 -18 172 -61 199 -97 16 -23 18 -32 8 -52
-29 -65 -245 -36 -354 47 -102 79 -99 117 11 117 36 0 98 -7 136 -15z"/>
</g>
</svg>
